<svg width="10" height="10" viewBox="0 0 10 10" fill="none" xmlns="http://www.w3.org/2000/svg">
<path d="M10.0002 7.46005V8.96005C10.0008 9.0993 9.97225 9.23713 9.91647 9.36472C9.86068 9.49231 9.77886 9.60684 9.67625 9.70098C9.57364 9.79512 9.4525 9.86679 9.32059 9.9114C9.18867 9.95601 9.0489 9.97258 8.91021 9.96005C7.37163 9.79287 5.89371 9.26712 4.59521 8.42505C3.38712 7.65738 2.36288 6.63313 1.59521 5.42505C0.7502 4.12065 0.224332 2.63555 0.0602107 1.09005C0.0477159 0.951782 0.0641482 0.812429 0.108461 0.680861C0.152774 0.549293 0.223996 0.428393 0.317594 0.325859C0.411191 0.223325 0.525113 0.141403 0.652106 0.0853095C0.779099 0.0292158 0.916381 0.000179216 1.05521 4.84762e-05H2.55521C2.79786 -0.00233975 3.03311 0.0835878 3.21709 0.241815C3.40108 0.400042 3.52125 0.619772 3.55521 0.860048C3.61852 1.34008 3.73594 1.81141 3.90521 2.26505C3.97248 2.44401 3.98704 2.63851 3.94716 2.82549C3.90729 3.01247 3.81464 3.1841 3.68021 3.32005L3.04521 3.95505C3.75699 5.20682 4.79344 6.24327 6.04521 6.95505L6.68021 6.32005C6.81616 6.18562 6.98779 6.09297 7.17477 6.0531C7.36175 6.01322 7.55625 6.02778 7.73521 6.09505C8.18885 6.26432 8.66018 6.38174 9.14021 6.44505C9.38309 6.47931 9.60491 6.60165 9.76348 6.7888C9.92204 6.97594 10.0063 7.21484 10.0002 7.46005Z" fill="#48A317"/>
</svg>
