<svg width="18" height="17" viewBox="0 0 18 17" fill="none" xmlns="http://www.w3.org/2000/svg">
<path d="M17.3333 12.6V15.1C17.3343 15.3321 17.2867 15.5618 17.1938 15.7745C17.1008 15.9871 16.9644 16.178 16.7934 16.3349C16.6224 16.4918 16.4205 16.6112 16.2006 16.6856C15.9808 16.76 15.7478 16.7876 15.5167 16.7667C12.9524 16.488 10.4892 15.6118 8.325 14.2083C6.31152 12.9289 4.60445 11.2218 3.325 9.20834C1.91665 7.03435 1.0402 4.55917 0.766667 1.98334C0.745842 1.7529 0.773229 1.52064 0.847084 1.30136C0.920938 1.08208 1.03964 0.880584 1.19564 0.709694C1.35163 0.538804 1.5415 0.402267 1.75316 0.308778C1.96481 0.215288 2.19362 0.166894 2.425 0.166676H4.925C5.32942 0.162696 5.72149 0.305908 6.02813 0.56962C6.33478 0.833332 6.53506 1.19955 6.59167 1.60001C6.69719 2.40006 6.89288 3.18562 7.175 3.94168C7.28712 4.23995 7.31139 4.56411 7.24492 4.87574C7.17846 5.18738 7.02405 5.47344 6.8 5.70001L5.74167 6.75834C6.92796 8.84463 8.65538 10.572 10.7417 11.7583L11.8 10.7C12.0266 10.476 12.3126 10.3216 12.6243 10.2551C12.9359 10.1886 13.2601 10.2129 13.5583 10.325C14.3144 10.6071 15.0999 10.8028 15.9 10.9083C16.3048 10.9655 16.6745 11.1693 16.9388 11.4813C17.2031 11.7932 17.3435 12.1913 17.3333 12.6Z" fill="#C5CCD1"/>
</svg>
