<svg width="12" height="17" viewBox="0 0 12 17" fill="none" xmlns="http://www.w3.org/2000/svg">
<path d="M6 16.8334C5.80556 16.8334 5.63889 16.7778 5.50001 16.6667C5.36112 16.5556 5.25695 16.4097 5.18751 16.2292C4.92362 15.4514 4.59028 14.7222 4.1875 14.0417C3.79862 13.3611 3.25001 12.5625 2.54167 11.6459C1.83334 10.7292 1.25695 9.85419 0.812505 9.02085C0.38195 8.18752 0.166672 7.18058 0.166672 6.00002C0.166672 4.37502 0.729172 3.00002 1.85417 1.87502C2.99306 0.736131 4.37501 0.166687 6 0.166687C7.62501 0.166687 9 0.736131 10.125 1.87502C11.2639 3.00002 11.8333 4.37502 11.8333 6.00002C11.8333 7.26391 11.5903 8.31946 11.1042 9.16669C10.632 10 10.0833 10.8264 9.45834 11.6459C8.70834 12.6459 8.13889 13.4792 7.75001 14.1459C7.37501 14.7986 7.06251 15.4931 6.81251 16.2292C6.74306 16.4236 6.63195 16.5764 6.47917 16.6875C6.34028 16.7847 6.18056 16.8334 6 16.8334ZM6 8.08335C6.58334 8.08335 7.07639 7.88196 7.47917 7.47919C7.88195 7.07641 8.08334 6.58335 8.08334 6.00002C8.08334 5.41669 7.88195 4.92363 7.47917 4.52085C7.07639 4.11808 6.58334 3.91669 6 3.91669C5.41667 3.91669 4.92362 4.11808 4.52084 4.52085C4.11806 4.92363 3.91667 5.41669 3.91667 6.00002C3.91667 6.58335 4.11806 7.07641 4.52084 7.47919C4.92362 7.88196 5.41667 8.08335 6 8.08335Z" fill="#C5CCD1"/>
</svg>
