<svg width="11" height="11" viewBox="0 0 11 11" fill="none" xmlns="http://www.w3.org/2000/svg">
<path d="M10.9167 8.16497V9.78997C10.9173 9.94083 10.8864 10.0901 10.8259 10.2284C10.7655 10.3666 10.6769 10.4907 10.5657 10.5926C10.4545 10.6946 10.3233 10.7723 10.1804 10.8206C10.0375 10.8689 9.88606 10.8869 9.73582 10.8733C8.06902 10.6922 6.46794 10.1226 5.06123 9.21039C3.75247 8.37875 2.64287 7.26915 1.81123 5.96039C0.895806 4.54729 0.326116 2.93843 0.148317 1.26414C0.134781 1.11435 0.152583 0.963383 0.200588 0.820851C0.248594 0.678319 0.325752 0.547344 0.427149 0.436266C0.528546 0.325187 0.651962 0.236439 0.789537 0.175671C0.927113 0.114902 1.07584 0.0834461 1.22623 0.0833045H2.85123C3.11411 0.0807172 3.36895 0.173805 3.56827 0.345218C3.76759 0.516631 3.89778 0.754671 3.93457 1.01497C4.00315 1.53501 4.13035 2.04561 4.31373 2.53705C4.38661 2.73093 4.40238 2.94163 4.35918 3.1442C4.31598 3.34676 4.21562 3.5327 4.06998 3.67997L3.38207 4.36789C4.15316 5.72397 5.27598 6.8468 6.63207 7.61789L7.31998 6.92997C7.46726 6.78434 7.65319 6.68397 7.85576 6.64077C8.05832 6.59757 8.26902 6.61334 8.4629 6.68622C8.95434 6.8696 9.46495 6.9968 9.98498 7.06539C10.2481 7.10251 10.4884 7.23504 10.6602 7.43778C10.832 7.64052 10.9232 7.89932 10.9167 8.16497Z" fill="#A6A6A6"/>
</svg>
