<svg width="60" height="63" viewBox="0 0 60 63" fill="none" xmlns="http://www.w3.org/2000/svg">
<path fill-rule="evenodd" clip-rule="evenodd" d="M28.1667 6.33331C28.1667 4.40031 29.7338 2.83331 31.6667 2.83331H39.0001C40.9331 2.83331 42.5001 4.40032 42.5001 6.33331V10.9521H28.1667V6.33331ZM27.1667 10.9521H28.1667V15.593H27.1667V10.9521ZM27.1667 10.9521H15.6668C13.4576 10.9521 11.6667 12.743 11.6667 14.9521V58.0018C11.6667 60.2109 13.4576 62.0018 15.6667 62.0018H54.3334C56.5426 62.0018 58.3334 60.2109 58.3334 58.0018V14.9521C58.3334 12.743 56.5426 10.9521 54.3334 10.9521H43.5001V6.33331C43.5001 3.84803 41.4854 1.83331 39.0001 1.83331H31.6667C29.1815 1.83331 27.1667 3.84803 27.1667 6.33331V10.9521ZM43.5001 10.9521V15.593H42.5001V10.9521H43.5001Z" fill="white"/>
<path d="M28.1667 15.593V16.593H29.1667V15.593H28.1667ZM27.1667 15.593H26.1667V16.593H27.1667V15.593ZM43.5001 15.593V16.593H44.5001V15.593H43.5001ZM42.5001 15.593H41.5001V16.593H42.5001V15.593ZM31.6667 1.83331C29.1815 1.83331 27.1667 3.84803 27.1667 6.33331H29.1667C29.1667 4.9526 30.286 3.83331 31.6667 3.83331V1.83331ZM39.0001 1.83331H31.6667V3.83331H39.0001V1.83331ZM43.5001 6.33331C43.5001 3.84803 41.4854 1.83331 39.0001 1.83331V3.83331C40.3808 3.83331 41.5001 4.9526 41.5001 6.33331H43.5001ZM43.5001 10.9521V6.33331H41.5001V10.9521H43.5001ZM28.1667 11.9521H42.5001V9.9521H28.1667V11.9521ZM27.1667 6.33331V10.9521H29.1667V6.33331H27.1667ZM27.1667 11.9521H28.1667V9.9521H27.1667V11.9521ZM27.1667 10.9521V15.593H29.1667V10.9521H27.1667ZM28.1667 14.593H27.1667V16.593H28.1667V14.593ZM28.1667 15.593V10.9521H26.1667V15.593H28.1667ZM15.6668 11.9521H27.1667V9.9521H15.6668V11.9521ZM12.6667 14.9521C12.6667 13.2952 14.0099 11.9521 15.6668 11.9521V9.9521C12.9053 9.9521 10.6667 12.1907 10.6667 14.9521H12.6667ZM12.6667 58.0018V14.9521H10.6667V58.0018H12.6667ZM15.6667 61.0018C14.0099 61.0018 12.6667 59.6586 12.6667 58.0018H10.6667C10.6667 60.7632 12.9053 63.0018 15.6667 63.0018V61.0018ZM54.3334 61.0018H15.6667V63.0018H54.3334V61.0018ZM57.3334 58.0018C57.3334 59.6586 55.9903 61.0018 54.3334 61.0018V63.0018C57.0948 63.0018 59.3334 60.7632 59.3334 58.0018H57.3334ZM57.3334 14.9521V58.0018H59.3334V14.9521H57.3334ZM54.3334 11.9521C55.9903 11.9521 57.3334 13.2952 57.3334 14.9521H59.3334C59.3334 12.1907 57.0948 9.9521 54.3334 9.9521V11.9521ZM43.5001 11.9521H54.3334V9.9521H43.5001V11.9521ZM42.5001 6.33331V10.9521H44.5001V6.33331H42.5001ZM39.0001 2.83331C40.9331 2.83331 42.5001 4.40032 42.5001 6.33331H44.5001C44.5001 3.29575 42.0377 0.833313 39.0001 0.833313V2.83331ZM31.6667 2.83331H39.0001V0.833313H31.6667V2.83331ZM28.1667 6.33331C28.1667 4.40031 29.7338 2.83331 31.6667 2.83331V0.833313C28.6292 0.833313 26.1667 3.29574 26.1667 6.33331H28.1667ZM28.1667 10.9521V6.33331H26.1667V10.9521H28.1667ZM42.5001 10.9521V15.593H44.5001V10.9521H42.5001ZM43.5001 14.593H42.5001V16.593H43.5001V14.593ZM43.5001 15.593V10.9521H41.5001V15.593H43.5001ZM42.5001 11.9521H43.5001V9.9521H42.5001V11.9521Z" fill="black"/>
<mask id="path-3-inside-1_2009_919" fill="white">
<path fill-rule="evenodd" clip-rule="evenodd" d="M0 36.1222V62.9967H32.6664V36.1222L16.3332 20.33L0 36.1222ZM16.3662 38.2788C18.023 38.2788 19.3662 36.9918 19.3662 35.4041C19.3662 33.8165 18.023 32.5295 16.3662 32.5295C14.7093 32.5295 13.3662 33.8165 13.3662 35.4041C13.3662 36.9918 14.7093 38.2788 16.3662 38.2788Z"/>
</mask>
<path fill-rule="evenodd" clip-rule="evenodd" d="M0 36.1222V62.9967H32.6664V36.1222L16.3332 20.33L0 36.1222ZM16.3662 38.2788C18.023 38.2788 19.3662 36.9918 19.3662 35.4041C19.3662 33.8165 18.023 32.5295 16.3662 32.5295C14.7093 32.5295 13.3662 33.8165 13.3662 35.4041C13.3662 36.9918 14.7093 38.2788 16.3662 38.2788Z" fill="white"/>
<path d="M0 62.9967H-2V64.9967H0V62.9967ZM0 36.1222L-1.3902 34.6844L-2 35.274V36.1222H0ZM32.6664 62.9967V64.9967H34.6664V62.9967H32.6664ZM32.6664 36.1222H34.6664V35.274L34.0566 34.6844L32.6664 36.1222ZM16.3332 20.33L17.7234 18.8922L16.3332 17.548L14.943 18.8922L16.3332 20.33ZM2 62.9967V36.1222H-2V62.9967H2ZM32.6664 60.9967H0V64.9967H32.6664V60.9967ZM30.6664 36.1222V62.9967H34.6664V36.1222H30.6664ZM14.943 21.7678L31.2762 37.56L34.0566 34.6844L17.7234 18.8922L14.943 21.7678ZM1.3902 37.56L17.7234 21.7678L14.943 18.8922L-1.3902 34.6844L1.3902 37.56ZM17.3662 35.4041C17.3662 35.8077 16.9998 36.2788 16.3662 36.2788V40.2788C19.0463 40.2788 21.3662 38.1759 21.3662 35.4041H17.3662ZM16.3662 34.5295C16.9998 34.5295 17.3662 35.0006 17.3662 35.4041H21.3662C21.3662 32.6324 19.0463 30.5295 16.3662 30.5295V34.5295ZM15.3662 35.4041C15.3662 35.0006 15.7326 34.5295 16.3662 34.5295V30.5295C13.686 30.5295 11.3662 32.6324 11.3662 35.4041H15.3662ZM16.3662 36.2788C15.7326 36.2788 15.3662 35.8077 15.3662 35.4041H11.3662C11.3662 38.1759 13.686 40.2788 16.3662 40.2788V36.2788Z" fill="black" mask="url(#path-3-inside-1_2009_919)"/>
</svg>
