<svg width="62" height="62" viewBox="0 0 62 62" fill="none" xmlns="http://www.w3.org/2000/svg">
<path d="M12.5385 31.0015V18.8636C12.5745 16.4777 13.081 14.1224 14.0289 11.9325C14.9769 9.74273 16.3476 7.76148 18.0626 6.1023C19.7776 4.44313 21.8031 3.13864 24.0232 2.2636C26.2432 1.38855 28.6141 0.960141 31 1.00291C33.3859 0.960141 35.7568 1.38855 37.9768 2.2636C40.1969 3.13864 42.2224 4.44313 43.9374 6.1023C45.6524 7.76148 47.0231 9.74273 47.9711 11.9325C48.919 14.1224 49.4255 16.4777 49.4615 18.8636V31.0015M40.2308 55.231C42.6789 55.231 45.0268 54.2586 46.7579 52.5275C48.489 50.7965 49.4615 48.4488 49.4615 46.0007V35.6166M40.2308 55.231C40.2308 56.7611 39.6229 58.2284 38.541 59.3103C37.4591 60.3922 35.9916 61 34.4615 61H27.5385C26.0084 61 24.5409 60.3922 23.459 59.3103C22.3771 58.2284 21.7692 56.7611 21.7692 55.231C21.7692 53.701 22.3771 52.2337 23.459 51.1518C24.5409 50.0699 26.0084 49.4621 27.5385 49.4621H34.4615C35.9916 49.4621 37.4591 50.0699 38.541 51.1518C39.6229 52.2337 40.2308 53.701 40.2308 55.231ZM5.61538 24.0787H10.2308C10.8428 24.0787 11.4298 24.3218 11.8626 24.7546C12.2953 25.1873 12.5385 25.7743 12.5385 26.3863V40.2318C12.5385 40.8438 12.2953 41.4307 11.8626 41.8635C11.4298 42.2962 10.8428 42.5394 10.2308 42.5394H5.61538C4.39131 42.5394 3.21737 42.0531 2.35181 41.1876C1.48626 40.3221 1 39.1482 1 37.9242V28.6939C1 27.4699 1.48626 26.296 2.35181 25.4305C3.21737 24.565 4.39131 24.0787 5.61538 24.0787ZM56.3846 42.5394H51.7692C51.1572 42.5394 50.5702 42.2962 50.1374 41.8635C49.7047 41.4307 49.4615 40.8438 49.4615 40.2318V26.3863C49.4615 25.7743 49.7047 25.1873 50.1374 24.7546C50.5702 24.3218 51.1572 24.0787 51.7692 24.0787H56.3846C57.6087 24.0787 58.7826 24.565 59.6482 25.4305C60.5137 26.296 61 27.4699 61 28.6939V37.9242C61 39.1482 60.5137 40.3221 59.6482 41.1876C58.7826 42.0531 57.6087 42.5394 56.3846 42.5394Z" stroke="black" stroke-width="2" stroke-linecap="round" stroke-linejoin="round"/>
</svg>
